# xmcd
#
# Track frame offsets: 
#        150
#        13821
#        27418
#        43400
#        59773
#        74263
#        92682
#        109022
#        123151
#        134967
#        150798
#        163438
#        181356
#
# Disc length: 2599 seconds
#
# Revision: 0
# Processed by: cddbd v1.5.2PL0 Copyright (c) Steve Scherf et al.
# Submitted via: ExactAudioCopy v1.0b1
#
DISCID=bd0a250d
DTITLE=Lazy Lester - You Better Listen
DYEAR=2011
DGENRE=Blues
TTITLE0=Rooster Blues
TTITLE1=You Better Listen
TTITLE2=Ethel Mae
TTITLE3=If You Don't Want Me Baby
TTITLE4=Scratch My Back
TTITLE5=Courtroom Blues
TTITLE6=Think It Over One More Time
TTITLE7=O.J. Shuffle
TTITLE8=Blue Eyes Crying In The Rain
TTITLE9=Bright Lights Big City
TTITLE10=The Same Thing Will Happen To You
TTITLE11=When My First Wife Left Me
TTITLE12=Paradise Stomp
EXTD=
EXTT0=
EXTT1=
EXTT2=
EXTT3=
EXTT4=
EXTT5=
EXTT6=
EXTT7=
EXTT8=
EXTT9=
EXTT10=
EXTT11=
EXTT12=
PLAYORDER=
